<svg width="36" height="36" viewBox="0 0 36 36" fill="none" xmlns="http://www.w3.org/2000/svg">
<path d="M36 18C36 27.9411 22.95 12.6 18 36C8.05887 36 0 27.9411 0 18C0 8.05887 8.05887 0 18 0C27.9411 0 36 8.05887 36 18Z" fill="#075CE9"/>
<path d="M22.5582 20.025L20.8332 18.2583C20.4622 17.9056 19.9942 17.6719 19.4893 17.5873C18.9844 17.5026 18.4657 17.5709 17.9999 17.7833L17.2499 17.0333C18.1337 15.8524 18.5373 14.3806 18.3795 12.914C18.2217 11.4475 17.5142 10.0952 16.3994 9.12933C15.2846 8.16348 13.8454 7.65579 12.3713 7.70848C10.8972 7.76117 9.49787 8.37032 8.45488 9.4133C7.4119 10.4563 6.80275 11.8557 6.75006 13.3297C6.69737 14.8038 7.20506 16.2431 8.17091 17.3579C9.13676 18.4726 10.4891 19.1801 11.9556 19.3379C13.4221 19.4957 14.894 19.0921 16.0749 18.2083L16.8166 18.95C16.5792 19.4164 16.4941 19.9455 16.5733 20.4628C16.6525 20.98 16.8921 21.4594 17.2582 21.8333L19.0249 23.6C19.4937 24.0682 20.1291 24.3311 20.7916 24.3311C21.4541 24.3311 22.0895 24.0682 22.5582 23.6C22.7964 23.3672 22.9856 23.0891 23.1147 22.7822C23.2439 22.4752 23.3104 22.1455 23.3104 21.8125C23.3104 21.4795 23.2439 21.1498 23.1147 20.8428C22.9856 20.5359 22.7964 20.2578 22.5582 20.025ZM15.4916 16.4917C14.9084 17.0733 14.166 17.4691 13.358 17.629C12.5501 17.789 11.7128 17.7058 10.9521 17.3902C10.1913 17.0745 9.54121 16.5404 9.08384 15.8554C8.62646 15.1705 8.38236 14.3653 8.38236 13.5417C8.38236 12.718 8.62646 11.9129 9.08384 11.2279C9.54121 10.5429 10.1913 10.0088 10.9521 9.69317C11.7128 9.3775 12.5501 9.29437 13.358 9.45429C14.166 9.61421 14.9084 10.01 15.4916 10.5917C15.8796 10.9787 16.1875 11.4385 16.3975 11.9447C16.6076 12.4509 16.7157 12.9936 16.7157 13.5417C16.7157 14.0897 16.6076 14.6324 16.3975 15.1386C16.1875 15.6448 15.8796 16.1046 15.4916 16.4917ZM21.3832 22.3833C21.3058 22.4614 21.2136 22.5234 21.1121 22.5657C21.0105 22.608 20.9016 22.6298 20.7916 22.6298C20.6816 22.6298 20.5726 22.608 20.4711 22.5657C20.3695 22.5234 20.2774 22.4614 20.1999 22.3833L18.4332 20.6167C18.3551 20.5392 18.2931 20.447 18.2508 20.3455C18.2085 20.2439 18.1867 20.135 18.1867 20.025C18.1867 19.915 18.2085 19.8061 18.2508 19.7045C18.2931 19.603 18.3551 19.5108 18.4332 19.4333C18.5107 19.3552 18.6029 19.2932 18.7044 19.2509C18.806 19.2086 18.9149 19.1868 19.0249 19.1868C19.1349 19.1868 19.2438 19.2086 19.3454 19.2509C19.4469 19.2932 19.5391 19.3552 19.6166 19.4333L21.3832 21.2C21.4613 21.2775 21.5233 21.3696 21.5657 21.4712C21.608 21.5727 21.6297 21.6817 21.6297 21.7917C21.6297 21.9017 21.608 22.0106 21.5657 22.1121C21.5233 22.2137 21.4613 22.3059 21.3832 22.3833Z" fill="white"/>
</svg>
