<svg width="18" height="18" viewBox="0 0 18 18" fill="none" xmlns="http://www.w3.org/2000/svg">
<path d="M16.4998 10.6667C16.2788 10.6667 16.0669 10.7545 15.9106 10.9108C15.7543 11.067 15.6665 11.279 15.6665 11.5V14.8333C15.6665 15.0544 15.5787 15.2663 15.4224 15.4226C15.2661 15.5789 15.0542 15.6667 14.8332 15.6667H3.1665C2.94549 15.6667 2.73353 15.5789 2.57725 15.4226C2.42097 15.2663 2.33317 15.0544 2.33317 14.8333V11.5C2.33317 11.279 2.24537 11.067 2.08909 10.9108C1.93281 10.7545 1.72085 10.6667 1.49984 10.6667C1.27882 10.6667 1.06686 10.7545 0.910582 10.9108C0.754301 11.067 0.666504 11.279 0.666504 11.5V14.8333C0.666504 15.4964 0.929896 16.1323 1.39874 16.6011C1.86758 17.0699 2.50346 17.3333 3.1665 17.3333H14.8332C15.4962 17.3333 16.1321 17.0699 16.6009 16.6011C17.0698 16.1323 17.3332 15.4964 17.3332 14.8333V11.5C17.3332 11.279 17.2454 11.067 17.0891 10.9108C16.9328 10.7545 16.7209 10.6667 16.4998 10.6667ZM8.40817 12.0917C8.48742 12.1675 8.58088 12.227 8.68317 12.2667C8.78292 12.3108 8.89078 12.3335 8.99984 12.3335C9.1089 12.3335 9.21675 12.3108 9.3165 12.2667C9.4188 12.227 9.51225 12.1675 9.5915 12.0917L12.9248 8.75834C13.0818 8.60142 13.1699 8.38859 13.1699 8.16667C13.1699 7.94475 13.0818 7.73193 12.9248 7.57501C12.7679 7.41809 12.5551 7.32993 12.3332 7.32993C12.1113 7.32993 11.8984 7.41809 11.7415 7.57501L9.83317 9.49167V1.50001C9.83317 1.27899 9.74537 1.06703 9.58909 0.910749C9.43281 0.754469 9.22085 0.666672 8.99984 0.666672C8.77882 0.666672 8.56686 0.754469 8.41058 0.910749C8.2543 1.06703 8.1665 1.27899 8.1665 1.50001V9.49167L6.25817 7.57501C6.18047 7.49731 6.08823 7.43567 5.98671 7.39362C5.88519 7.35157 5.77639 7.32993 5.6665 7.32993C5.55662 7.32993 5.44781 7.35157 5.3463 7.39362C5.24478 7.43567 5.15254 7.49731 5.07484 7.57501C4.99714 7.6527 4.9355 7.74495 4.89345 7.84646C4.8514 7.94798 4.82976 8.05679 4.82976 8.16667C4.82976 8.27655 4.8514 8.38536 4.89345 8.48688C4.9355 8.5884 4.99714 8.68064 5.07484 8.75834L8.40817 12.0917Z" fill="#0F50DD"/>
</svg>
