<svg width="21" height="17" viewBox="0 0 21 17" fill="none" xmlns="http://www.w3.org/2000/svg">
<path d="M11.5418 14.75H1.12516C0.848896 14.75 0.583944 14.8597 0.388593 15.0551C0.193243 15.2504 0.0834961 15.5154 0.0834961 15.7917C0.0834961 16.0679 0.193243 16.3329 0.388593 16.5282C0.583944 16.7236 0.848896 16.8333 1.12516 16.8333H11.5418C11.8181 16.8333 12.083 16.7236 12.2784 16.5282C12.4738 16.3329 12.5835 16.0679 12.5835 15.7917C12.5835 15.5154 12.4738 15.2504 12.2784 15.0551C12.083 14.8597 11.8181 14.75 11.5418 14.75ZM1.12516 4.33332H9.4585C9.73476 4.33332 9.99972 4.22358 10.1951 4.02823C10.3904 3.83288 10.5002 3.56792 10.5002 3.29166C10.5002 3.01539 10.3904 2.75044 10.1951 2.55509C9.99972 2.35974 9.73476 2.24999 9.4585 2.24999H1.12516C0.848896 2.24999 0.583944 2.35974 0.388593 2.55509C0.193243 2.75044 0.0834961 3.01539 0.0834961 3.29166C0.0834961 3.56792 0.193243 3.83288 0.388593 4.02823C0.583944 4.22358 0.848896 4.33332 1.12516 4.33332ZM1.12516 8.49999H9.4585C9.73476 8.49999 9.99972 8.39024 10.1951 8.19489C10.3904 7.99954 10.5002 7.73459 10.5002 7.45832C10.5002 7.18205 10.3904 6.9171 10.1951 6.72175C9.99972 6.5264 9.73476 6.41666 9.4585 6.41666H1.12516C0.848896 6.41666 0.583944 6.5264 0.388593 6.72175C0.193243 6.9171 0.0834961 7.18205 0.0834961 7.45832C0.0834961 7.73459 0.193243 7.99954 0.388593 8.19489C0.583944 8.39024 0.848896 8.49999 1.12516 8.49999ZM19.8752 10.5833H1.12516C0.848896 10.5833 0.583944 10.6931 0.388593 10.8884C0.193243 11.0838 0.0834961 11.3487 0.0834961 11.625C0.0834961 11.9013 0.193243 12.1662 0.388593 12.3616C0.583944 12.5569 0.848896 12.6667 1.12516 12.6667H19.8752C20.1514 12.6667 20.4164 12.5569 20.6117 12.3616C20.8071 12.1662 20.9168 11.9013 20.9168 11.625C20.9168 11.3487 20.8071 11.0838 20.6117 10.8884C20.4164 10.6931 20.1514 10.5833 19.8752 10.5833ZM19.8752 0.166656H13.6252C13.3489 0.166656 13.0839 0.276403 12.8886 0.471754C12.6932 0.667104 12.5835 0.932056 12.5835 1.20832V7.45832C12.5835 7.73459 12.6932 7.99954 12.8886 8.19489C13.0839 8.39024 13.3489 8.49999 13.6252 8.49999H19.8752C20.1514 8.49999 20.4164 8.39024 20.6117 8.19489C20.8071 7.99954 20.9168 7.73459 20.9168 7.45832V1.20832C20.9168 0.932056 20.8071 0.667104 20.6117 0.471754C20.4164 0.276403 20.1514 0.166656 19.8752 0.166656ZM18.8335 6.41666H14.6668V2.24999H18.8335V6.41666Z" fill="white"/>
</svg>
