<svg width="16" height="18" viewBox="0 0 16 18" fill="none" xmlns="http://www.w3.org/2000/svg">
<path d="M13.3333 14.4C13.0976 14.4 12.8715 14.4948 12.7048 14.6636C12.5381 14.8324 12.4444 15.0613 12.4444 15.3C12.4444 15.5387 12.3508 15.7676 12.1841 15.9364C12.0174 16.1052 11.7913 16.2 11.5556 16.2H2.66667C2.43092 16.2 2.20483 16.1052 2.03813 15.9364C1.87143 15.7676 1.77778 15.5387 1.77778 15.3V2.7C1.77778 2.4613 1.87143 2.23239 2.03813 2.0636C2.20483 1.89482 2.43092 1.8 2.66667 1.8H7.11111V4.5C7.11111 5.21608 7.39206 5.90284 7.89216 6.40919C8.39226 6.91554 9.07053 7.2 9.77778 7.2H12.4444V8.1C12.4444 8.33869 12.5381 8.56761 12.7048 8.7364C12.8715 8.90518 13.0976 9 13.3333 9C13.5691 9 13.7952 8.90518 13.9619 8.7364C14.1286 8.56761 14.2222 8.33869 14.2222 8.1V6.3C14.2222 6.3 14.2222 6.3 14.2222 6.246C14.213 6.16332 14.1951 6.08187 14.1689 6.003C14.1727 5.97613 14.1727 5.94886 14.1689 5.922C14.1262 5.82946 14.0691 5.7444 14 5.67L8.66667 0.27C8.59319 0.199995 8.50917 0.142273 8.41778 0.0989999H8.32889C8.24503 0.0534879 8.15526 0.0201607 8.06222 0H2.66667C1.95942 0 1.28115 0.284464 0.781049 0.790812C0.280952 1.29716 0 1.98392 0 2.7V15.3C0 16.0161 0.280952 16.7028 0.781049 17.2092C1.28115 17.7155 1.95942 18 2.66667 18H11.5556C12.2628 18 12.9411 17.7155 13.4412 17.2092C13.9413 16.7028 14.2222 16.0161 14.2222 15.3C14.2222 15.0613 14.1286 14.8324 13.9619 14.6636C13.7952 14.4948 13.5691 14.4 13.3333 14.4ZM8.88889 3.069L11.1911 5.4H9.77778C9.54203 5.4 9.31594 5.30518 9.14924 5.1364C8.98254 4.96761 8.88889 4.73869 8.88889 4.5V3.069ZM15.1111 10.8H12.8889C12.7719 10.7993 12.6559 10.822 12.5476 10.8668C12.4393 10.9116 12.3408 10.9776 12.2578 11.061L11.1556 12.186L8.66667 9.306C8.58661 9.21313 8.48855 9.1379 8.37859 9.08498C8.26863 9.03206 8.1491 9.00258 8.02742 8.99836C7.90574 8.99414 7.7845 9.01527 7.67122 9.06045C7.55794 9.10563 7.45504 9.17389 7.36889 9.261L5.85778 10.8H4.44444C4.2087 10.8 3.9826 10.8948 3.81591 11.0636C3.64921 11.2324 3.55556 11.4613 3.55556 11.7C3.55556 11.9387 3.64921 12.1676 3.81591 12.3364C3.9826 12.5052 4.2087 12.6 4.44444 12.6H6.22222C6.33921 12.6007 6.45517 12.578 6.56347 12.5332C6.67177 12.4884 6.77028 12.4224 6.85333 12.339L8 11.214L10.4889 14.094C10.5692 14.1867 10.6674 14.2616 10.7775 14.3143C10.8876 14.3669 11.0072 14.3961 11.1289 14.4C11.2459 14.4007 11.3618 14.378 11.4701 14.3332C11.5784 14.2884 11.6769 14.2224 11.76 14.139L13.2533 12.6H15.1111C15.3469 12.6 15.573 12.5052 15.7397 12.3364C15.9064 12.1676 16 11.9387 16 11.7C16 11.4613 15.9064 11.2324 15.7397 11.0636C15.573 10.8948 15.3469 10.8 15.1111 10.8Z" fill="white"/>
</svg>
