<svg width="12" height="18" viewBox="0 0 12 18" fill="none" xmlns="http://www.w3.org/2000/svg">
<path d="M6.59175 12.575L6.46675 12.475C6.42029 12.4435 6.36985 12.4182 6.31675 12.4L6.16675 12.3333C6.0316 12.3051 5.89155 12.3108 5.75918 12.3501C5.62682 12.3894 5.50628 12.4609 5.40842 12.5583C5.33481 12.6393 5.27562 12.7323 5.23342 12.8333C5.17035 12.9852 5.15361 13.1523 5.1853 13.3136C5.21698 13.4749 5.29569 13.6233 5.4115 13.74C5.52731 13.8567 5.67505 13.9365 5.83613 13.9694C5.99721 14.0024 6.16443 13.9869 6.31675 13.925C6.41633 13.8767 6.50885 13.815 6.59175 13.7417C6.70738 13.6245 6.78571 13.4757 6.81686 13.314C6.848 13.1524 6.83056 12.9851 6.76675 12.8333C6.7252 12.737 6.66583 12.6493 6.59175 12.575ZM9.33342 0.666664H2.66675C2.00371 0.666664 1.36782 0.930056 0.898981 1.3989C0.43014 1.86774 0.166748 2.50362 0.166748 3.16666V14.8333C0.166748 15.4964 0.43014 16.1323 0.898981 16.6011C1.36782 17.0699 2.00371 17.3333 2.66675 17.3333H9.33342C9.99646 17.3333 10.6323 17.0699 11.1012 16.6011C11.57 16.1323 11.8334 15.4964 11.8334 14.8333V3.16666C11.8334 2.50362 11.57 1.86774 11.1012 1.3989C10.6323 0.930056 9.99646 0.666664 9.33342 0.666664ZM10.1667 14.8333C10.1667 15.0543 10.079 15.2663 9.92267 15.4226C9.76639 15.5789 9.55443 15.6667 9.33342 15.6667H2.66675C2.44573 15.6667 2.23377 15.5789 2.07749 15.4226C1.92121 15.2663 1.83341 15.0543 1.83341 14.8333V3.16666C1.83341 2.94565 1.92121 2.73369 2.07749 2.57741C2.23377 2.42113 2.44573 2.33333 2.66675 2.33333H9.33342C9.55443 2.33333 9.76639 2.42113 9.92267 2.57741C10.079 2.73369 10.1667 2.94565 10.1667 3.16666V14.8333Z" fill="white"/>
</svg>
