<svg width="20" height="26" viewBox="0 0 20 26" fill="none" xmlns="http://www.w3.org/2000/svg">
<path d="M20 13C20 12.6685 19.8683 12.3505 19.6339 12.1161C19.3995 11.8817 19.0815 11.75 18.75 11.75H9.2625L12.1375 8.8875C12.254 8.77095 12.3465 8.63259 12.4096 8.48031C12.4727 8.32804 12.5051 8.16482 12.5051 8C12.5051 7.83518 12.4727 7.67197 12.4096 7.51969C12.3465 7.36741 12.254 7.22905 12.1375 7.1125C12.021 6.99595 11.8826 6.9035 11.7303 6.84043C11.578 6.77735 11.4148 6.74489 11.25 6.74489C11.0852 6.74489 10.922 6.77735 10.7697 6.84043C10.6174 6.9035 10.479 6.99595 10.3625 7.1125L5.3625 12.1125C5.2487 12.2314 5.15949 12.3716 5.1 12.525C4.97498 12.8293 4.97498 13.1707 5.1 13.475C5.15949 13.6284 5.2487 13.7686 5.3625 13.8875L10.3625 18.8875C10.4787 19.0047 10.617 19.0977 10.7693 19.1611C10.9216 19.2246 11.085 19.2572 11.25 19.2572C11.415 19.2572 11.5784 19.2246 11.7307 19.1611C11.883 19.0977 12.0213 19.0047 12.1375 18.8875C12.2547 18.7713 12.3477 18.633 12.4111 18.4807C12.4746 18.3284 12.5072 18.165 12.5072 18C12.5072 17.835 12.4746 17.6716 12.4111 17.5193C12.3477 17.367 12.2547 17.2287 12.1375 17.1125L9.2625 14.25H18.75C19.0815 14.25 19.3995 14.1183 19.6339 13.8839C19.8683 13.6495 20 13.3315 20 13ZM16.25 0.5H3.75C2.75544 0.5 1.80161 0.895088 1.09835 1.59835C0.395088 2.30161 0 3.25544 0 4.25V21.75C0 22.7446 0.395088 23.6984 1.09835 24.4017C1.80161 25.1049 2.75544 25.5 3.75 25.5H16.25C17.2446 25.5 18.1984 25.1049 18.9017 24.4017C19.6049 23.6984 20 22.7446 20 21.75V18C20 17.6685 19.8683 17.3505 19.6339 17.1161C19.3995 16.8817 19.0815 16.75 18.75 16.75C18.4185 16.75 18.1005 16.8817 17.8661 17.1161C17.6317 17.3505 17.5 17.6685 17.5 18V21.75C17.5 22.0815 17.3683 22.3995 17.1339 22.6339C16.8995 22.8683 16.5815 23 16.25 23H3.75C3.41848 23 3.10054 22.8683 2.86612 22.6339C2.6317 22.3995 2.5 22.0815 2.5 21.75V4.25C2.5 3.91848 2.6317 3.60054 2.86612 3.36612C3.10054 3.1317 3.41848 3 3.75 3H16.25C16.5815 3 16.8995 3.1317 17.1339 3.36612C17.3683 3.60054 17.5 3.91848 17.5 4.25V8C17.5 8.33152 17.6317 8.64946 17.8661 8.88388C18.1005 9.1183 18.4185 9.25 18.75 9.25C19.0815 9.25 19.3995 9.1183 19.6339 8.88388C19.8683 8.64946 20 8.33152 20 8V4.25C20 3.25544 19.6049 2.30161 18.9017 1.59835C18.1984 0.895088 17.2446 0.5 16.25 0.5Z" fill="#075CE9"/>
</svg>
