<svg width="22" height="112" viewBox="0 0 22 112" fill="none" xmlns="http://www.w3.org/2000/svg">
<rect width="22" height="112" fill="#7EE5B1"/>
<path d="M11.3848 84.2168L11.3848 87.6504L15 87.6504L15 89.1328L6.46875 89.1328L6.46875 83.7129L7.66406 83.7129L7.66406 87.6504L10.2012 87.6504L10.2012 84.2168L11.3848 84.2168ZM15 80.9707L15 82.4473L6.46875 82.4473L6.46875 80.9707L15 80.9707ZM15 72.3809L15 73.8633L8.94727 77.666L15 77.666L15 79.1484L6.46875 79.1484L6.46875 77.666L12.5449 73.8516L6.46875 73.8516L6.46875 72.3809L15 72.3809ZM13.0137 65.748L13.0137 69.0527L15 69.7441L15 71.2852L6.46875 68.0625L6.46875 66.7324L15 63.5039L15 65.0508L13.0137 65.748ZM11.8184 68.6367L11.8184 66.1641L8.2793 67.4004L11.8184 68.6367ZM13.8164 61.0488L13.8164 57.1758L15 57.1758L15 62.5312L6.46875 62.5312L6.46875 61.0488L13.8164 61.0488ZM15 54.4746L15 55.9512L6.46875 55.9512L6.46875 54.4746L15 54.4746ZM13.8164 51.2578L13.8164 46.6992L15 46.6992L15 53.0508L14.0391 53.0508L7.66406 48.6387L7.66406 53.0215L6.46875 53.0215L6.46875 46.8398L7.40625 46.8398L13.8164 51.2578ZM13.0137 40.5645L13.0137 43.8691L15 44.5605L15 46.1016L6.46875 42.8789L6.46875 41.5488L15 38.3203L15 39.8672L13.0137 40.5645ZM11.8184 43.4531L11.8184 40.9805L8.27929 42.2168L11.8184 43.4531ZM15 37.3477L6.46875 37.3477L6.46875 34.8281C6.46875 34.0742 6.63672 33.4062 6.97265 32.8242C7.30859 32.2383 7.78515 31.7852 8.40234 31.4648C9.01953 31.1445 9.72656 30.9844 10.5234 30.9844L10.9512 30.9844C11.7598 30.9844 12.4707 31.1465 13.084 31.4707C13.6973 31.791 14.1699 32.25 14.502 32.8477C14.834 33.4414 15 34.123 15 34.8926L15 37.3477ZM7.66406 35.8652L13.8164 35.8652L13.8164 34.8984C13.8164 34.1211 13.5742 33.5254 13.0898 33.1113C12.6016 32.6934 11.9023 32.4805 10.9922 32.4727L10.5176 32.4727C9.59179 32.4727 8.88476 32.6738 8.39648 33.0762C7.9082 33.4785 7.66406 34.0625 7.66406 34.8281L7.66406 35.8652ZM10.957 22.6992C11.793 22.6992 12.5273 22.8437 13.1602 23.1328C13.7891 23.4219 14.2734 23.8359 14.6133 24.375C14.9492 24.9102 15.1172 25.5273 15.1172 26.2266C15.1172 26.918 14.9492 27.5352 14.6133 28.0781C14.2734 28.6172 13.791 29.0352 13.166 29.332C12.541 29.625 11.8203 29.7734 11.0039 29.7773L10.5234 29.7773C9.6914 29.7773 8.95703 29.6309 8.32031 29.3379C7.68359 29.041 7.19726 28.625 6.86133 28.0898C6.52148 27.5508 6.35156 26.9336 6.35156 26.2383C6.35156 25.543 6.51953 24.9277 6.85547 24.3926C7.1875 23.8535 7.66797 23.4375 8.29687 23.1445C8.92187 22.8516 9.65039 22.7031 10.4824 22.6992L10.957 22.6992ZM10.5117 24.1816C9.5664 24.1816 8.84179 24.3613 8.33789 24.7207C7.83398 25.0762 7.58203 25.582 7.58203 26.2383C7.58203 26.8789 7.83398 27.3809 8.33789 27.7441C8.83789 28.1035 9.54687 28.2871 10.4648 28.2949L10.957 28.2949C11.8945 28.2949 12.6191 28.1133 13.1309 27.75C13.6426 27.3828 13.8984 26.875 13.8984 26.2266C13.8984 25.5703 13.6484 25.0664 13.1484 24.7148C12.6484 24.3594 11.918 24.1816 10.957 24.1816L10.5117 24.1816Z" fill="#1C2D53"/>
</svg>
