<svg width="22" height="112" viewBox="0 0 22 112" fill="none" xmlns="http://www.w3.org/2000/svg">
<rect width="22" height="112" fill="#075CE9"/>
<path d="M13.0137 91.3574L13.0137 94.6621L15 95.3535L15 96.8945L6.46875 93.6719L6.46875 92.3418L15 89.1133L15 90.6602L13.0137 91.3574ZM11.8184 94.2461L11.8184 91.7734L8.2793 93.0098L11.8184 94.2461ZM7.66406 82.6797L7.66406 85.3398L15 85.3398L15 86.8105L7.66406 86.8105L7.66406 89.4473L6.46875 89.4473L6.46875 82.6797L7.66406 82.6797ZM11.1914 76.5684L11.1914 80.0723L13.8164 80.0723L13.8164 75.9766L15 75.9766L15 81.5547L6.46875 81.5547L6.46875 76.0176L7.66406 76.0176L7.66406 80.0723L10.0195 80.0723L10.0195 76.5684L11.1914 76.5684ZM15 68.002L15 69.4844L8.94726 73.2871L15 73.2871L15 74.7695L6.46875 74.7695L6.46875 73.2871L12.5449 69.4727L6.46875 69.4727L6.46875 68.002L15 68.002ZM15 66.25L6.46875 66.25L6.46875 63.7305C6.46875 62.9766 6.63672 62.3086 6.97265 61.7266C7.30859 61.1406 7.78515 60.6875 8.40234 60.3672C9.01953 60.0469 9.72656 59.8867 10.5234 59.8867L10.9512 59.8867C11.7598 59.8867 12.4707 60.0488 13.084 60.373C13.6973 60.6934 14.1699 61.1523 14.502 61.75C14.834 62.3437 15 63.0254 15 63.7949L15 66.25ZM7.66406 64.7676L13.8164 64.7676L13.8164 63.8008C13.8164 63.0234 13.5742 62.4277 13.0898 62.0137C12.6016 61.5957 11.9023 61.3828 10.9922 61.375L10.5176 61.375C9.5918 61.375 8.88476 61.5762 8.39648 61.9785C7.9082 62.3809 7.66406 62.9648 7.66406 63.7305L7.66406 64.7676ZM15 56.8457L15 58.3223L6.46875 58.3223L6.46875 56.8457L15 56.8457ZM6.46875 53.1016L13.0078 50.6406L6.46875 48.1855L6.46875 46.2695L15 46.2695L15 47.7461L12.1875 47.7461L8.42578 47.5996L15 50.1191L15 51.1797L8.43164 53.6934L12.1875 53.5469L15 53.5469L15 55.0234L6.46875 55.0234L6.46875 53.1016ZM11.1914 39.5254L11.1914 43.0293L13.8164 43.0293L13.8164 38.9336L15 38.9336L15 44.5117L6.46875 44.5117L6.46875 38.9746L7.66406 38.9746L7.66406 43.0293L10.0195 43.0293L10.0195 39.5254L11.1914 39.5254ZM15 30.959L15 32.4414L8.94726 36.2441L15 36.2441L15 37.7266L6.46875 37.7266L6.46875 36.2441L12.5449 32.4297L6.46875 32.4297L6.46875 30.959L15 30.959ZM7.66406 23.2187L7.66406 25.8789L15 25.8789L15 27.3496L7.66406 27.3496L7.66406 29.9863L6.46875 29.9863L6.46875 23.2187L7.66406 23.2187ZM10.957 15.4492C11.793 15.4492 12.5273 15.5937 13.1602 15.8828C13.7891 16.1719 14.2734 16.5859 14.6133 17.125C14.9492 17.6602 15.1172 18.2773 15.1172 18.9766C15.1172 19.668 14.9492 20.2852 14.6133 20.8281C14.2734 21.3672 13.791 21.7852 13.166 22.082C12.541 22.375 11.8203 22.5234 11.0039 22.5273L10.5234 22.5273C9.6914 22.5273 8.95703 22.3809 8.32031 22.0879C7.68359 21.791 7.19726 21.375 6.86132 20.8398C6.52148 20.3008 6.35156 19.6836 6.35156 18.9883C6.35156 18.293 6.51953 17.6777 6.85547 17.1426C7.1875 16.6035 7.66797 16.1875 8.29687 15.8945C8.92187 15.6016 9.65039 15.4531 10.4824 15.4492L10.957 15.4492ZM10.5117 16.9316C9.5664 16.9316 8.84179 17.1113 8.33789 17.4707C7.83398 17.8262 7.58203 18.332 7.58203 18.9883C7.58203 19.6289 7.83398 20.1309 8.33789 20.4941C8.83789 20.8535 9.54687 21.0371 10.4648 21.0449L10.957 21.0449C11.8945 21.0449 12.6191 20.8633 13.1309 20.5C13.6426 20.1328 13.8984 19.625 13.8984 18.9766C13.8984 18.3203 13.6484 17.8164 13.1484 17.4648C12.6484 17.1094 11.918 16.9316 10.957 16.9316L10.5117 16.9316Z" fill="white"/>
</svg>
